# 3ds Max Wavefront OBJ Exporter v0.97b - (c)2007 guruware
# File Created: 02.01.2014 09:50:20

#
# object Bunsen_burner
#

v  18.0870 12.8267 -7.4919
v  13.8432 12.8267 -13.8432
v  13.8432 16.8853 -13.8432
v  18.0870 16.8853 -7.4919
v  7.4919 12.8267 -18.0870
v  7.4919 16.8853 -18.0870
v  0.0000 12.8267 -19.5772
v  0.0000 16.8853 -19.5772
v  -7.4919 12.8267 -18.0870
v  -7.4919 16.8853 -18.0870
v  -13.8432 12.8267 -13.8432
v  -13.8432 16.8853 -13.8432
v  -18.0870 12.8267 -7.4919
v  -18.0870 16.8853 -7.4919
v  -19.5772 12.8267 -0.0000
v  -19.5772 16.8853 -0.0000
v  -18.0870 12.8267 7.4919
v  -18.0870 16.8853 7.4919
v  -13.8432 12.8267 13.8432
v  -13.8432 16.8853 13.8432
v  -7.4919 12.8267 18.0870
v  -7.4919 16.8853 18.0870
v  0.0000 12.8267 19.5772
v  0.0000 16.8853 19.5772
v  7.4919 12.8267 18.0870
v  7.4919 16.8853 18.0870
v  13.8432 12.8267 13.8432
v  13.8432 16.8853 13.8432
v  18.0870 12.8267 7.4919
v  18.0870 16.8853 7.4919
v  3.6100 84.5849 -1.4953
v  3.6100 84.5849 1.4953
v  3.6094 38.3461 1.4656
v  3.6094 38.3461 -1.5251
v  1.4953 84.5849 -3.6100
v  1.4946 38.3461 -3.6398
v  -1.4953 84.5849 -3.6100
v  -1.4960 38.3461 -3.6398
v  -3.6100 84.5849 -1.4953
v  -3.6107 38.3461 -1.5251
v  -3.6100 84.5849 1.4953
v  -3.6107 38.3461 1.4656
v  -1.4953 84.5849 3.6100
v  -1.4960 38.3461 3.5803
v  1.4953 84.5849 3.6100
v  1.4946 38.3461 3.5803
v  4.2562 103.8267 -1.7630
v  0.0000 103.8266 0.0000
v  4.2562 103.8266 1.7630
v  1.7630 103.8266 -4.2562
v  -1.7630 103.8266 -4.2562
v  -4.2562 103.8266 -1.7630
v  -4.2562 103.8266 1.7630
v  -1.7630 103.8266 4.2562
v  1.7630 103.8266 4.2562
v  3.4557 21.0612 -3.4557
v  4.5151 21.0612 -1.8702
v  1.8702 21.0612 -4.5151
v  0.0000 21.0612 -4.8871
v  -1.8702 21.0612 -4.5151
v  -3.4557 21.0612 -3.4557
v  -4.5151 21.0612 -1.8702
v  -4.8871 21.0612 -0.0000
v  -4.5151 21.0612 1.8702
v  -3.4557 21.0612 3.4557
v  -1.8702 21.0612 4.5151
v  -0.0000 21.0612 4.8871
v  1.8702 21.0612 4.5151
v  3.4557 21.0612 3.4557
v  4.5151 21.0612 1.8702
v  4.5151 12.8267 -1.8702
v  4.5151 12.8267 1.8702
v  4.2562 85.4819 1.7630
v  4.2562 85.4819 -1.7630
v  4.5276 36.1608 -1.8716
v  4.5276 36.1608 1.8689
v  1.7630 85.4818 -4.2562
v  1.8827 36.1608 -4.5165
v  -1.7630 85.4819 -4.2562
v  -1.8577 36.1608 -4.5165
v  -4.2562 85.4818 -1.7630
v  -4.5026 36.1608 -1.8716
v  -4.2562 85.4819 1.7630
v  -4.5026 36.1609 1.8689
v  -1.7630 85.4819 4.2562
v  -1.8577 36.1608 4.5138
v  1.7630 85.4819 4.2562
v  1.8827 36.1609 4.5138
v  -16.0109 25.5267 2.7423
v  -10.6776 25.5447 2.7977
v  -10.6776 27.5774 -0.0000
v  -16.0109 27.5191 0.0000
v  -16.0109 22.3029 1.6949
v  -10.6776 22.2558 1.7291
v  -16.0109 22.3029 -1.6948
v  -10.6776 22.2558 -1.7291
v  -16.0109 25.5267 -2.7423
v  -10.6776 25.5447 -2.7977
v  -5.3333 26.6357 -0.0000
v  -5.3333 25.2537 1.9021
v  5.3333 25.2537 1.9021
v  5.3333 26.6357 -0.0000
v  -5.3333 23.0176 1.1756
v  5.3333 23.0176 1.1756
v  -5.3333 23.0176 -1.1756
v  5.3333 23.0176 -1.1756
v  -5.3333 25.2537 -1.9021
v  5.3333 25.2537 -1.9021
v  16.0000 25.1007 1.4313
v  16.0000 26.1406 -0.0000
v  16.0000 23.4182 0.8846
v  16.0000 23.4182 -0.8846
v  16.0000 25.1007 -1.4313
v  -10.6667 26.5774 -0.0000
v  -10.6667 25.2357 1.8467
v  -10.6667 23.0648 1.1413
v  -10.6667 23.0648 -1.1413
v  -10.6667 25.2357 -1.8467
v  -16.0000 24.6357 0.0000
# 119 vertices

vn 0.8315 0.0000 -0.5556
vn 0.7071 0.0000 -0.7071
vn 0.3827 0.0000 -0.9239
vn -0.0000 0.0000 -1.0000
vn -0.3827 0.0000 -0.9239
vn -0.7071 -0.0000 -0.7071
vn -0.7071 0.0000 -0.7071
vn -0.9239 0.0000 -0.3827
vn -1.0000 0.0000 -0.0000
vn -0.9239 -0.0000 0.3827
vn -0.7071 0.0000 0.7071
vn -0.3827 0.0000 0.9239
vn 0.0000 0.0000 1.0000
vn 0.3827 0.0000 0.9239
vn 0.7071 0.0000 0.7071
vn 0.8315 0.0000 0.5556
vn 0.9239 0.0002 -0.3825
vn 0.9238 -0.0003 0.3828
vn 0.9239 -0.0003 0.3826
vn 0.9238 0.0002 -0.3828
vn 0.3827 0.0006 -0.9239
vn 0.3826 0.0006 -0.9239
vn -0.3827 0.0006 -0.9239
vn -0.3826 0.0006 -0.9239
vn -0.9239 0.0003 -0.3826
vn -0.9238 0.0003 -0.3828
vn -0.9238 -0.0002 0.3828
vn -0.9239 -0.0002 0.3825
vn -0.3826 -0.0006 0.9239
vn -0.3827 -0.0006 0.9239
vn 0.3826 -0.0006 0.9239
vn 0.3827 -0.0006 0.9239
vn -0.0000 1.0000 -0.0000
vn -0.0000 1.0000 0.0000
vn 0.0000 1.0000 -0.0000
vn 0.1933 0.9619 -0.1933
vn 0.2315 0.9605 -0.1547
vn 0.1046 0.9619 -0.2526
vn -0.0000 0.9619 -0.2734
vn -0.1046 0.9619 -0.2526
vn -0.1933 0.9619 -0.1933
vn -0.2526 0.9619 -0.1046
vn -0.2734 0.9619 -0.0000
vn -0.2734 0.9619 0.0000
vn -0.2526 0.9619 0.1046
vn -0.1933 0.9619 0.1933
vn -0.1046 0.9619 0.2526
vn -0.0000 0.9619 0.2734
vn 0.1046 0.9619 0.2526
vn 0.1933 0.9619 0.1933
vn 0.2315 0.9605 0.1547
vn 0.0000 -1.0000 -0.0000
vn 0.3827 -0.0000 0.9239
vn 0.3827 -0.0000 -0.9239
vn 1.0000 0.0000 -0.0000
vn 0.9239 0.0000 -0.3827
vn 0.9239 -0.0000 0.3827
vn 0.9239 0.0000 0.3827
vn 0.9239 -0.0000 -0.3827
vn 0.9569 -0.0008 0.2903
vn 0.9569 -0.0008 -0.2903
vn 0.9268 0.0114 -0.3754
vn 0.9268 0.0115 0.3753
vn 0.7071 0.0013 -0.7072
vn 0.3827 0.0240 -0.9235
vn 0.3826 -0.0004 -0.9239
vn -0.0001 0.0019 -1.0000
vn -0.3824 0.0246 -0.9237
vn -0.9239 -0.0000 -0.3827
vn -0.3828 0.0002 -0.9238
vn -0.7072 0.0025 -0.7070
vn -0.9236 0.0251 -0.3827
vn -0.9239 0.0000 0.3827
vn -0.9239 0.0007 -0.3826
vn -1.0000 0.0028 0.0000
vn -0.9236 0.0252 0.3826
vn -0.3827 -0.0000 0.9239
vn -0.9239 0.0008 0.3827
vn -0.7071 0.0026 0.7071
vn -0.3824 0.0248 0.9237
vn -0.3828 0.0004 0.9238
vn -0.0001 0.0021 1.0000
vn 0.3828 0.0242 0.9235
vn 0.3826 -0.0002 0.9239
vn 0.7071 0.0014 0.7072
vn 0.8406 0.4170 0.3457
vn 0.8390 0.4171 0.3494
vn 0.8438 0.4096 -0.3468
vn 0.8416 0.4095 -0.3523
vn 0.3522 0.4017 -0.8453
vn 0.3481 0.4017 -0.8470
vn -0.3509 0.3981 -0.8475
vn -0.3512 0.3981 -0.8475
vn -0.8470 0.4010 -0.3490
vn -0.8455 0.4010 -0.3527
vn -0.8422 0.4087 0.3516
vn -0.8445 0.4086 0.3461
vn -0.3462 0.4164 0.8407
vn -0.3502 0.4164 0.8390
vn 0.3474 0.4199 0.8385
vn 0.3472 0.4199 0.8386
vn 0.7285 -0.6149 -0.3018
vn 0.7285 -0.6149 0.3018
vn 0.3018 -0.6149 -0.7285
vn -0.3018 -0.6149 -0.7285
vn -0.7285 -0.6149 -0.3018
vn -0.7285 -0.6149 0.3018
vn -0.3018 -0.6149 0.7285
vn 0.3018 -0.6149 0.7285
vn -0.0109 0.3090 0.9510
vn -0.0109 0.9999 -0.0000
vn -0.0109 -0.8090 0.5878
vn -0.0109 -0.8090 -0.5877
vn -0.0109 0.3090 -0.9510
vn 0.0000 0.8090 0.5878
vn 0.0000 -0.3090 0.9511
vn 0.0000 -1.0000 0.0000
vn -0.0000 -0.3090 -0.9511
vn -0.0000 0.8090 -0.5878
vn 0.0464 0.9989 -0.0000
vn 0.0464 0.3087 0.9500
vn 0.0464 -0.8081 0.5872
vn 0.0464 -0.8081 -0.5872
vn 0.0464 0.3087 -0.9500
vn -1.0000 -0.0038 -0.0028
vn -1.0000 0.0014 -0.0045
vn -1.0000 0.0047 0.0000
vn -1.0000 0.0014 0.0045
vn -1.0000 -0.0038 0.0028
vn 0.9999 0.0109 0.0079
vn 0.9999 0.0109 -0.0079
vn 0.9999 -0.0042 -0.0128
vn 0.9999 -0.0135 -0.0000
vn 0.9999 -0.0042 0.0128
# 134 vertex normals

vt 0.5362 0.3990 0.0000
vt 0.5362 0.3429 0.0000
vt 0.5962 0.3429 0.0000
vt 0.5962 0.3990 0.0000
vt 0.5362 0.2867 0.0000
vt 0.5962 0.2867 0.0000
vt 0.5362 0.2306 0.0000
vt 0.5962 0.2306 0.0000
vt 0.5362 0.1744 0.0000
vt 0.5962 0.1744 0.0000
vt 0.5362 0.1183 0.0000
vt 0.5962 0.1183 0.0000
vt 0.5362 0.0622 0.0000
vt 0.5962 0.0622 0.0000
vt 0.5362 0.0060 0.0000
vt 0.5962 0.0060 0.0000
vt 0.4571 0.3974 0.0000
vt 0.4571 0.3412 0.0000
vt 0.5171 0.3412 0.0000
vt 0.5171 0.3974 0.0000
vt 0.4571 0.2851 0.0000
vt 0.5171 0.2851 0.0000
vt 0.4571 0.2289 0.0000
vt 0.5171 0.2289 0.0000
vt 0.4571 0.1728 0.0000
vt 0.5171 0.1728 0.0000
vt 0.4571 0.1166 0.0000
vt 0.5171 0.1166 0.0000
vt 0.4571 0.0605 0.0000
vt 0.5171 0.0605 0.0000
vt 0.4571 0.0044 0.0000
vt 0.5171 0.0044 0.0000
vt 0.0688 0.5223 0.0000
vt 0.1169 0.5225 0.0000
vt 0.1161 0.8625 0.0000
vt 0.0673 0.8624 0.0000
vt 0.0231 0.5226 0.0000
vt 0.0211 0.8614 0.0000
vt 0.3607 0.5221 0.0000
vt 0.4064 0.5224 0.0000
vt 0.4092 0.8610 0.0000
vt 0.3633 0.8621 0.0000
vt 0.3130 0.5223 0.0000
vt 0.3148 0.8624 0.0000
vt 0.2645 0.5224 0.0000
vt 0.2653 0.8624 0.0000
vt 0.2153 0.5225 0.0000
vt 0.2156 0.8624 0.0000
vt 0.1660 0.5225 0.0000
vt 0.1657 0.8624 0.0000
vt 0.0898 0.1235 0.0000
vt 0.1388 0.0647 0.0000
vt 0.1877 0.1235 0.0000
vt 0.0205 0.0891 0.0000
vt 0.0205 0.0404 0.0000
vt 0.0898 0.0059 0.0000
vt 0.1877 0.0059 0.0000
vt 0.2570 0.0404 0.0000
vt 0.2570 0.0891 0.0000
vt 0.9336 0.9483 0.0000
vt 0.7722 0.8698 0.0000
vt 0.7877 0.8581 0.0000
vt 0.9960 0.9015 0.0000
vt 0.8395 0.9806 0.0000
vt 0.7504 0.8775 0.0000
vt 0.7259 0.9923 0.0000
vt 0.7259 0.8801 0.0000
vt 0.6122 0.9806 0.0000
vt 0.7014 0.8775 0.0000
vt 0.5176 0.9480 0.0000
vt 0.6802 0.8701 0.0000
vt 0.4559 0.9003 0.0000
vt 0.6656 0.8587 0.0000
vt 0.4347 0.8450 0.0000
vt 0.6604 0.8450 0.0000
vt 0.4559 0.7898 0.0000
vt 0.6656 0.8314 0.0000
vt 0.5176 0.7421 0.0000
vt 0.6802 0.8200 0.0000
vt 0.6122 0.7094 0.0000
vt 0.7014 0.8126 0.0000
vt 0.7259 0.6978 0.0000
vt 0.7259 0.8100 0.0000
vt 0.8395 0.7094 0.0000
vt 0.7504 0.8126 0.0000
vt 0.9342 0.7421 0.0000
vt 0.7716 0.8200 0.0000
vt 0.9957 0.7896 0.0000
vt 0.7862 0.8315 0.0000
vt 0.9255 0.4460 0.0000
vt 0.9883 0.4927 0.0000
vt 0.7877 0.5340 0.0000
vt 0.4315 0.5477 0.0000
vt 0.8317 0.4148 0.0000
vt 0.7209 0.4038 0.0000
vt 0.6102 0.4148 0.0000
vt 0.5163 0.4460 0.0000
vt 0.4536 0.4927 0.0000
vt 0.5163 0.6495 0.0000
vt 0.4536 0.6028 0.0000
vt 0.6102 0.6807 0.0000
vt 0.7209 0.6916 0.0000
vt 0.8317 0.6807 0.0000
vt 0.9255 0.6495 0.0000
vt 0.9883 0.6028 0.0000
vt 0.7877 0.5615 0.0000
vt 0.2829 0.3641 0.0000
vt 0.2212 0.2562 0.0000
vt 0.3429 0.2562 0.0000
vt 0.3429 0.3641 0.0000
vt 0.2212 0.2287 0.0000
vt 0.2829 0.1207 0.0000
vt 0.3429 0.1207 0.0000
vt 0.3429 0.2287 0.0000
vt 0.0653 0.3794 0.0000
vt 0.1163 0.3794 0.0000
vt 0.1166 0.5143 0.0000
vt 0.0675 0.5142 0.0000
vt 0.1159 0.9908 0.0000
vt 0.0628 0.9905 0.0000
vt 0.0637 0.8798 0.0000
vt 0.1150 0.8800 0.0000
vt 0.0131 0.3798 0.0000
vt 0.0170 0.5147 0.0000
vt 0.0358 0.9901 0.0000
vt 0.0101 0.8786 0.0000
vt 0.3676 0.3794 0.0000
vt 0.4198 0.3800 0.0000
vt 0.4126 0.5148 0.0000
vt 0.3620 0.5141 0.0000
vt 0.4204 0.8775 0.0000
vt 0.4312 0.9888 0.0000
vt 0.4031 0.9896 0.0000
vt 0.3672 0.8794 0.0000
vt 0.3156 0.3792 0.0000
vt 0.3134 0.5141 0.0000
vt 0.3745 0.9902 0.0000
vt 0.3460 0.9907 0.0000
vt 0.3165 0.8799 0.0000
vt 0.2648 0.3793 0.0000
vt 0.2646 0.5142 0.0000
vt 0.3183 0.9908 0.0000
vt 0.2926 0.9909 0.0000
vt 0.2659 0.8799 0.0000
vt 0.2153 0.3794 0.0000
vt 0.2153 0.5143 0.0000
vt 0.2671 0.9909 0.0000
vt 0.2422 0.9909 0.0000
vt 0.2155 0.8799 0.0000
vt 0.1659 0.3794 0.0000
vt 0.1659 0.5143 0.0000
vt 0.2171 0.9909 0.0000
vt 0.1922 0.9909 0.0000
vt 0.1654 0.8799 0.0000
vt 0.1669 0.9909 0.0000
vt 0.1417 0.9909 0.0000
vt 0.0076 0.9897 0.0000
vt 0.4606 -0.1755 0.0000
vt 0.4618 -0.1366 0.0000
vt 0.4365 -0.1359 0.0000
vt 0.4358 -0.1749 0.0000
vt 0.3615 -0.1749 0.0000
vt 0.3608 -0.1359 0.0000
vt 0.3355 -0.1366 0.0000
vt 0.3368 -0.1755 0.0000
vt 0.3863 -0.1746 0.0000
vt 0.3860 -0.1356 0.0000
vt 0.4110 -0.1745 0.0000
vt 0.4113 -0.1356 0.0000
vt 0.1863 0.3268 0.0000
vt 0.1515 0.3269 0.0000
vt 0.1512 0.2486 0.0000
vt 0.1857 0.2477 0.0000
vt 0.1169 0.3271 0.0000
vt 0.1169 0.2489 0.0000
vt 0.0825 0.3271 0.0000
vt 0.0825 0.2489 0.0000
vt 0.0479 0.3269 0.0000
vt 0.0482 0.2486 0.0000
vt 0.0131 0.3268 0.0000
vt 0.0138 0.2477 0.0000
vt 0.1398 0.1704 0.0000
vt 0.1661 0.1693 0.0000
vt 0.1130 0.1707 0.0000
vt 0.0864 0.1707 0.0000
vt 0.0596 0.1704 0.0000
vt 0.0333 0.1693 0.0000
vt 0.0785 0.1583 0.0000
vt 0.1209 0.1583 0.0000
vt 0.0997 0.1507 0.0000
vt 0.1850 0.3662 0.0000
vt 0.1511 0.3661 0.0000
vt 0.1169 0.3662 0.0000
vt 0.0825 0.3662 0.0000
vt 0.0483 0.3661 0.0000
vt 0.0144 0.3662 0.0000
vt 0.3987 -0.1916 0.0000
vt 0.3987 -0.2127 0.0000
vt 0.4187 -0.1981 0.0000
vt 0.3786 -0.1981 0.0000
vt 0.3986 -0.1040 0.0000
vt 0.4121 -0.1138 0.0000
vt 0.4190 -0.1116 0.0000
vt 0.3986 -0.0967 0.0000
vt 0.4070 -0.1297 0.0000
vt 0.3903 -0.1297 0.0000
vt 0.3851 -0.1138 0.0000
vt 0.3782 -0.1116 0.0000
# 208 texture coords

g Bunsen_burner
s 1
f 1/1/1 2/2/2 3/3/2 4/4/1 
f 2/2/2 5/5/3 6/6/3 3/3/2 
f 5/5/3 7/7/4 8/8/4 6/6/3 
f 7/7/4 9/9/5 10/10/5 8/8/4 
f 9/9/5 11/11/6 12/12/7 10/10/5 
f 11/11/6 13/13/8 14/14/8 12/12/7 
f 13/13/8 15/15/9 16/16/9 14/14/8 
f 15/17/9 17/18/10 18/19/10 16/20/9 
f 17/18/10 19/21/11 20/22/11 18/19/10 
f 19/21/11 21/23/12 22/24/12 20/22/11 
f 21/23/12 23/25/13 24/26/13 22/24/12 
f 23/25/13 25/27/14 26/28/14 24/26/13 
f 25/27/14 27/29/15 28/30/15 26/28/14 
f 27/29/15 29/31/16 30/32/16 28/30/15 
s 2
f 31/33/17 32/34/18 33/35/19 34/36/20 
f 35/37/21 31/33/17 34/36/20 36/38/22 
f 37/39/23 35/40/21 36/41/22 38/42/24 
f 39/43/25 37/39/23 38/42/24 40/44/26 
f 41/45/27 39/43/25 40/44/26 42/46/28 
f 43/47/29 41/45/27 42/46/28 44/48/30 
f 45/49/31 43/47/29 44/48/30 46/50/32 
f 32/34/18 45/49/31 46/50/32 33/35/19 
f 47/51/33 48/52/33 49/53/34 
f 47/51/33 50/54/35 48/52/33 
f 50/54/35 51/55/35 48/52/33 
f 51/55/35 52/56/34 48/52/33 
f 52/56/34 53/57/34 48/52/33 
f 53/57/34 54/58/33 48/52/33 
f 54/58/33 55/59/35 48/52/33 
f 55/59/35 49/53/34 48/52/33 
f 3/60/36 56/61/36 57/62/37 4/63/37 
f 6/64/38 58/65/38 56/61/36 3/60/36 
f 8/66/39 59/67/39 58/65/38 6/64/38 
f 10/68/40 60/69/40 59/67/39 8/66/39 
f 12/70/41 61/71/41 60/69/40 10/68/40 
f 14/72/42 62/73/42 61/71/41 12/70/41 
f 16/74/43 63/75/44 62/73/42 14/72/42 
f 18/76/45 64/77/45 63/75/44 16/74/43 
f 20/78/46 65/79/46 64/77/45 18/76/45 
f 22/80/47 66/81/47 65/79/46 20/78/46 
f 24/82/48 67/83/48 66/81/47 22/80/47 
f 26/84/49 68/85/49 67/83/48 24/82/48 
f 28/86/50 69/87/50 68/85/49 26/84/49 
f 30/88/51 70/89/51 69/87/50 28/86/50 
f 2/90/52 1/91/52 71/92/52 15/93/52 
f 5/94/52 2/90/52 15/93/52 
f 7/95/52 5/94/52 15/93/52 
f 9/96/52 7/95/52 15/93/52 
f 11/97/52 9/96/52 15/93/52 
f 13/98/52 11/97/52 15/93/52 
f 19/99/52 17/100/52 15/93/52 
f 21/101/52 19/99/52 15/93/52 
f 23/102/52 21/101/52 15/93/52 
f 25/103/52 23/102/52 15/93/52 
f 27/104/52 25/103/52 15/93/52 
f 29/105/52 27/104/52 15/93/52 72/106/52 
s 8
f 4/107/53 57/108/53 71/109/53 1/110/14 
f 70/111/54 30/112/3 29/113/3 72/114/54 
s 2
f 72/106/52 15/93/52 71/92/52 
s off
f 70/111/55 72/114/55 71/109/55 57/108/55 
s 4
f 47/115/56 49/116/57 73/117/58 74/118/59 
f 70/119/60 57/120/61 75/121/62 76/122/63 
f 50/123/3 47/115/56 74/118/59 77/124/3 
f 75/121/62 57/120/61 56/125/64 78/126/65 
f 51/127/5 50/128/3 77/129/3 79/130/5 
f 78/131/65 58/132/66 59/133/67 80/134/68 
f 52/135/8 51/127/5 79/130/5 81/136/69 
f 80/134/68 60/137/70 61/138/71 82/139/72 
f 53/140/10 52/135/8 81/136/69 83/141/73 
f 82/139/72 62/142/74 63/143/75 84/144/76 
f 54/145/77 53/140/10 83/141/73 85/146/12 
f 84/144/76 64/147/78 65/148/79 86/149/80 
f 55/150/53 54/145/77 85/146/12 87/151/53 
f 86/149/80 66/152/81 67/153/82 88/154/83 
f 49/116/57 55/150/53 87/151/53 73/117/58 
f 88/154/83 68/155/84 69/156/85 76/122/63 
s 1
f 33/35/86 76/122/87 75/121/88 34/36/89 
f 34/36/89 75/121/88 78/126/90 36/38/91 
f 36/41/91 78/131/90 80/134/92 38/42/93 
f 38/42/93 80/134/92 82/139/94 40/44/95 
f 40/44/95 82/139/94 84/144/96 42/46/97 
f 42/46/97 84/144/96 86/149/98 44/48/99 
f 44/48/99 86/149/98 88/154/100 46/50/101 
f 46/50/101 88/154/100 76/122/87 33/35/86 
f 31/33/102 74/118/102 73/117/103 32/34/103 
f 35/37/104 77/124/104 74/118/102 31/33/102 
f 37/39/105 79/130/105 77/129/104 35/40/104 
f 39/43/106 81/136/106 79/130/105 37/39/105 
f 41/45/107 83/141/107 81/136/106 39/43/106 
f 43/47/108 85/146/108 83/141/107 41/45/107 
f 45/49/109 87/151/109 85/146/108 43/47/108 
f 32/34/103 73/117/103 87/151/109 45/49/109 
s 4
f 56/125/64 58/157/66 78/126/65 
f 61/138/71 62/142/74 82/139/72 
f 65/148/79 66/152/81 86/149/80 
f 69/156/85 70/119/60 76/122/63 
f 59/133/67 60/137/70 80/134/68 
f 63/143/75 64/147/78 84/144/76 
f 67/153/82 68/155/84 88/154/83 
s 8
f 89/158/110 90/159/110 91/160/111 92/161/111 
f 93/162/112 94/163/112 90/164/110 89/165/110 
f 95/166/113 96/167/113 94/163/112 93/162/112 
f 97/168/114 98/169/114 96/167/113 95/166/113 
f 92/161/111 91/160/111 98/169/114 97/168/114 
s 1
f 99/170/115 100/171/115 101/172/115 102/173/115 
s 2
f 100/171/116 103/174/116 104/175/116 101/172/116 
s 1
f 103/174/117 105/176/117 106/177/117 104/175/117 
s 2
f 105/176/118 107/178/118 108/179/118 106/177/118 
s 4
f 107/178/119 99/180/119 102/181/119 108/179/119 
s 8
f 102/173/120 101/172/121 109/182/121 110/183/120 
f 101/172/121 104/175/122 111/184/122 109/182/121 
f 104/175/122 106/177/123 112/185/123 111/184/122 
f 106/177/123 108/179/124 113/186/124 112/185/123 
f 108/179/124 102/181/120 110/187/120 113/186/124 
s 1
f 111/184/55 112/185/55 113/188/55 109/189/55 
f 110/190/55 109/189/55 113/188/55 
s 8
f 100/171/110 99/170/111 114/191/111 115/192/110 
f 103/174/112 100/171/110 115/192/110 116/193/112 
f 105/176/113 103/174/112 116/193/112 117/194/113 
f 107/178/114 105/176/113 117/194/113 118/195/114 
f 99/180/111 107/178/114 118/195/114 114/196/111 
s off
f 119/197/125 89/198/125 92/199/125 
f 119/197/126 93/200/126 89/198/126 
f 119/197/127 95/166/127 93/200/127 
f 119/197/128 97/168/128 95/166/128 
f 119/197/129 92/199/129 97/168/129 
f 115/201/130 114/202/130 91/203/130 90/204/130 
f 114/202/131 118/205/131 98/169/131 91/203/131 
f 118/205/132 117/206/132 96/167/132 98/169/132 
f 117/206/133 116/207/133 94/208/133 96/167/133 
f 116/207/134 115/201/134 90/204/134 94/208/134 
# 99 polygons - 32 triangles

